<svg
   xmlns:dc="http://purl.org/dc/elements/1.1/"
   xmlns:cc="http://creativecommons.org/ns#"
   xmlns:rdf="http://www.w3.org/1999/02/22-rdf-syntax-ns#"
   xmlns:svg="http://www.w3.org/2000/svg"
   xmlns="http://www.w3.org/2000/svg"
   xmlns:sodipodi="http://sodipodi.sourceforge.net/DTD/sodipodi-0.dtd"
   xmlns:inkscape="http://www.inkscape.org/namespaces/inkscape"
   width="9.7637444mm"
   height="12.699537mm"
   viewBox="0 0 9.7637444 12.699537"
   version="1.1"
   id="svg7401"
   inkscape:version="0.92.5 (2060ec1f9f, 2020-04-08)"
   sodipodi:docname="dibujo2.svg">
  <defs
     id="defs7395" />
  <sodipodi:namedview
     id="base"
     pagecolor="#ffffff"
     bordercolor="#666666"
     borderopacity="1.0"
     inkscape:pageopacity="0.0"
     inkscape:pageshadow="2"
     inkscape:zoom="0.35"
     inkscape:cx="88.571427"
     inkscape:cy="-180.00001"
     inkscape:document-units="px"
     inkscape:current-layer="layer1"
     showgrid="false"
     inkscape:window-width="2880"
     inkscape:window-height="1526"
     inkscape:window-x="-11"
     inkscape:window-y="49"
     inkscape:window-maximized="1" />
  <metadata
     id="metadata7398">
    <rdf:RDF>
      <cc:Work
         rdf:about="">
        <dc:format>image/svg+xml</dc:format>
        <dc:type
           rdf:resource="http://purl.org/dc/dcmitype/StillImage" />
        <dc:title></dc:title>
      </cc:Work>
    </rdf:RDF>
  </metadata>
  <g
     inkscape:label="Capa 1"
     inkscape:groupmode="layer"
     id="layer1"
     transform="translate(-82.39881,-88.508792)">
    <path
       fill="#2e6dde"
       d="m 87.280682,88.509883 c -1.769422,-0.0495 -3.319117,1.59364 -3.193087,3.35327 0,0.67163 0,1.34325 0,2.01488 -0.562928,0 -1.125857,0 -1.688785,0 0,2.44343 0,4.88687 0,7.330297 3.254581,0 6.509163,0 9.763744,0 0,-2.443427 0,-4.886867 0,-7.330297 -0.562929,0 -1.125857,0 -1.688786,0 -0.0076,-0.83122 0.01695,-1.66324 -0.01594,-2.49383 -0.129636,-1.59253 -1.579235,-2.9041 -3.177141,-2.87432 z m -0.001,0.51625 c 1.448325,-0.0514 2.836598,1.22143 2.721279,2.70421 0,0.7159 0,1.43179 0,2.14769 -1.814015,0 -3.62803,0 -5.442045,0 0.0073,-0.85387 -0.01557,-1.70854 0.01357,-2.56183 0.124741,-1.33012 1.406775,-2.31629 2.707205,-2.29007 z m -4.461217,5.25756 c 2.974495,0 5.94899,0 8.923485,0 0,2.17299 0,4.34599 0,6.518977 -2.974495,0 -5.94899,0 -8.923485,0 0,-2.172987 0,-4.345987 0,-6.518977 z m 4.462259,1.60714 c -0.735412,-0.0361 -1.230293,0.90265 -0.785635,1.48912 0.18471,0.31127 0.679845,0.29151 0.534487,0.73293 0,0.23548 0,0.47097 0,0.70645 0.151373,-0.0479 0.504365,0.10577 0.501779,-0.0961 0,-0.32126 0,-0.64251 0,-0.96377 0.731685,-0.1613 0.951802,-1.22576 0.340994,-1.66222 -0.166485,-0.13292 -0.378616,-0.2069 -0.591625,-0.2064 z m 0,0.42064 c 0.483717,-0.0268 0.725927,0.668 0.329392,0.94714 -0.356524,0.3164 -0.970129,-0.0607 -0.850055,-0.52142 0.04518,-0.24262 0.273872,-0.42962 0.520663,-0.42572 z"
       id="rect7338"
       inkscape:connector-curvature="0" />
  </g>
</svg>
